<?xml version="1.0" standalone="no"?>
<!DOCTYPE svg PUBLIC "-//W3C//DTD SVG 20010904//EN"
 "http://www.w3.org/TR/2001/REC-SVG-20010904/DTD/svg10.dtd">
<svg version="1.0" xmlns="http://www.w3.org/2000/svg"
 width="2894.000000pt" height="2894.000000pt" viewBox="0 0 2894.000000 2894.000000"
 preserveAspectRatio="xMidYMid meet">
<metadata>
Created by potrace 1.14, written by Peter Selinger 2001-2017
</metadata>
<g transform="translate(0.000000,2894.000000) scale(0.100000,-0.100000)"
fill="#000000" stroke="none">
<path d="M19085 27344 c-88 -2 -354 -8 -591 -14 l-432 -10 -168 -56 c-632
-211 -1410 -596 -2326 -1151 l-236 -143 -559 -55 c-1480 -145 -3135 -316
-4028 -416 -1122 -126 -1875 -403 -2320 -853 -163 -165 -280 -349 -345 -543
-68 -205 -395 -1737 -585 -2743 -26 -135 -47 -246 -49 -247 -1 -2 -23 26 -49
61 -76 103 -255 303 -367 410 -789 748 -1870 1083 -2992 926 -1470 -205 -2812
-1207 -3524 -2630 -264 -527 -417 -1043 -491 -1650 -25 -207 -25 -753 0 -965
111 -929 479 -1706 1093 -2306 551 -537 1226 -859 2029 -966 190 -25 705 -25
900 0 604 79 1138 259 1665 562 230 132 492 316 695 488 49 42 91 75 92 73 2
-1 -11 -99 -27 -217 -90 -637 -99 -989 -39 -1460 137 -1086 659 -2117 1578
-3119 631 -687 1511 -1564 2288 -2278 l231 -212 -161 -163 c-177 -177 -316
-332 -478 -532 -107 -132 -283 -365 -333 -442 -22 -33 -35 -43 -66 -48 -21 -4
-64 -19 -96 -35 -306 -148 -657 -745 -1109 -1885 -225 -567 -539 -1459 -572
-1623 -21 -105 -23 -354 -4 -452 88 -462 417 -842 863 -999 131 -46 244 -64
393 -64 510 1 933 296 1205 841 60 121 286 635 455 1037 304 721 584 1493 624
1720 42 239 35 448 -23 645 l-24 85 26 35 c50 67 186 226 294 341 94 102 328
322 362 341 7 4 58 -32 127 -90 273 -231 672 -552 759 -613 856 -594 1981
-794 3215 -574 657 117 1444 320 2510 647 l330 101 85 -30 c47 -17 209 -77
360 -133 1323 -491 2220 -689 3015 -667 398 11 736 71 1085 193 699 243 1278
722 1672 1383 300 504 495 1071 647 1886 62 329 87 768 62 1055 -55 622 -279
1161 -666 1605 l-65 74 254 543 c766 1637 1371 2897 2114 4403 327 663 572
1151 1200 2385 189 373 247 510 297 704 46 182 59 297 52 484 -9 279 -82 494
-249 734 -113 163 -574 666 -998 1088 -1334 1330 -3146 2794 -5522 4463 -776
544 -1509 1041 -1563 1057 -39 12 -1116 21 -1520 14z m1270 -333 l160 -6 345
-234 c3431 -2331 5809 -4267 7319 -5960 195 -218 258 -300 310 -401 161 -311
159 -654 -4 -1060 -25 -63 -146 -311 -269 -550 -123 -239 -285 -557 -362 -706
l-138 -271 -110 -41 c-61 -23 -161 -59 -222 -81 l-111 -39 85 146 c490 849
781 1546 809 1938 l6 83 -58 77 c-370 492 -1241 1219 -2500 2089 -572 394
-1324 876 -1982 1269 -195 116 -230 141 -425 309 -1648 1414 -2914 2415 -3938
3113 -129 88 -287 194 -352 235 -64 41 -113 77 -109 81 12 13 1279 20 1546 9z
m-1907 -127 c1359 -823 3316 -2385 6317 -5042 96 -85 178 -209 295 -447 353
-713 286 -1388 -198 -2000 -139 -176 -190 -207 -347 -206 -195 0 -435 81 -790
265 -373 194 -21 -99 -3848 3201 -1901 1639 -3460 2981 -3464 2982 -10 4 -183
-192 -182 -204 0 -5 90 -84 199 -178 110 -93 196 -171 192 -172 -4 -1 -110 -7
-237 -13 -923 -44 -1814 -130 -2484 -241 -1522 -251 -2314 -650 -2436 -1229
-35 -166 -9 -348 80 -555 l17 -40 -41 39 c-22 22 -43 37 -46 34 -8 -8 47 -150
110 -283 400 -851 1538 -2144 3305 -3755 457 -417 595 -537 785 -680 218 -163
389 -329 431 -418 49 -104 -46 -124 -316 -65 -141 30 -240 69 -485 189 -669
327 -1384 837 -1998 1424 -59 56 -110 101 -112 99 -2 -3 26 -43 62 -89 l66
-85 -64 61 c-35 33 -154 145 -264 249 -879 833 -2090 2045 -3245 3250 -381
397 -593 705 -676 980 -37 124 -40 298 -6 393 97 270 424 503 962 684 154 52
312 84 585 118 388 48 2609 280 3785 395 1126 110 1032 99 1081 127 24 14 175
104 334 200 852 514 1557 863 2160 1069 119 41 152 48 219 48 l79 1 175 -106z
m1022 -4249 c1378 -1187 2543 -2194 2588 -2239 353 -343 621 -764 688 -1078
14 -68 14 -76 -6 -139 -111 -365 -924 -701 -2142 -883 -1414 -212 -2921 -146
-3718 163 -57 22 -106 39 -108 37 -3 -4 146 -112 236 -171 60 -39 52 -41 -15
-3 -261 146 -452 276 -716 487 -780 625 -2059 1819 -3833 3578 -433 428 -551
571 -644 777 -120 265 -87 468 110 667 359 364 1220 630 2603 804 583 73 1361
135 2067 165 140 6 278 12 305 13 28 1 57 -3 65 -9 8 -6 1142 -982 2520 -2169z
m-10634 1883 c-94 -205 -99 -442 -16 -689 82 -246 286 -563 554 -863 222 -249
1340 -1392 2070 -2117 1304 -1296 3543 -3549 3753 -3777 580 -629 866 -1052
1012 -1499 221 -671 144 -1359 -308 -2776 -54 -171 -116 -370 -136 -442 -220
-785 -726 -2223 -1047 -2978 l-80 -187 -126 7 c-198 12 -792 9 -937 -6 -540
-52 -986 -155 -1425 -328 -170 -67 -450 -198 -577 -270 l-72 -42 -273 183
c-2159 1443 -3547 2849 -4204 4261 -104 223 -216 524 -268 719 -14 50 -28 134
-31 186 -8 109 8 434 30 619 15 126 120 897 130 958 6 36 159 220 179 215 6
-1 81 -26 166 -54 l155 -51 -14 -131 c-17 -170 -20 -778 -3 -941 31 -306 67
-528 122 -765 392 -1671 1562 -2928 2965 -3185 205 -37 344 -49 570 -48 449 1
847 89 1269 279 595 268 1155 758 1563 1369 372 558 633 1236 748 1945 52 324
60 436 59 865 0 430 -11 572 -69 911 -287 1666 -1354 3007 -2714 3409 -511
151 -1068 165 -1586 40 -581 -140 -1108 -442 -1592 -912 -40 -38 -73 -67 -73
-63 0 4 -19 29 -42 55 -64 73 -144 119 -288 166 l-127 43 -6 260 c-6 262 -19
407 -58 631 -61 359 -189 757 -345 1066 l-56 113 57 305 c205 1105 574 2853
639 3024 70 187 209 367 395 516 36 28 66 51 67 51 2 0 -12 -33 -30 -72z
m-4076 -2308 c197 -12 281 -22 460 -57 805 -154 1515 -613 1986 -1283 389
-553 607 -1225 631 -1949 5 -156 4 -184 -8 -179 -8 3 -93 31 -189 63 -183 60
-262 71 -366 53 l-40 -8 -13 116 c-55 507 -259 1023 -566 1432 -99 132 -318
359 -450 465 -372 300 -802 488 -1295 568 -160 26 -533 37 -705 20 -409 -40
-800 -153 -1173 -340 -1608 -806 -2453 -2723 -1921 -4357 338 -1040 1204
-1752 2285 -1879 168 -20 490 -19 664 0 822 94 1630 525 2210 1180 52 58 97
102 100 98 4 -5 15 -29 24 -56 40 -108 148 -215 263 -262 l55 -23 -90 -98
c-400 -440 -895 -806 -1417 -1047 -162 -75 -244 -97 -505 -136 -257 -38 -363
-45 -645 -45 -370 0 -624 31 -940 114 -1134 299 -1984 1168 -2285 2334 -34
132 -63 292 -87 471 -24 184 -23 626 1 825 178 1472 1134 2741 2706 3595 156
85 409 208 554 271 l90 38 -38 17 c-31 13 -35 18 -20 22 53 16 325 39 514 45
25 1 119 -3 210 -8z m22214 -2444 c105 -122 165 -259 166 -377 0 -55 -290
-726 -392 -909 -180 -321 -683 -1140 -700 -1140 -11 0 -368 310 -368 320 0 4
51 66 113 137 522 596 833 1138 938 1638 20 93 24 139 24 295 0 138 -5 201
-17 249 l-16 64 86 -93 c48 -52 122 -134 166 -184z m-15574 -706 c154 -23 343
-67 445 -105 39 -14 59 -23 45 -21 -172 31 -273 40 -470 40 -227 1 -321 -8
-525 -51 -698 -145 -1361 -628 -1831 -1332 -893 -1337 -1001 -3270 -265 -4757
137 -278 284 -509 475 -748 107 -135 386 -412 518 -514 459 -356 933 -544
1467 -582 237 -17 545 12 760 71 40 11 76 18 78 15 15 -15 -364 -138 -526
-171 -326 -66 -695 -73 -1016 -19 -960 161 -1834 861 -2354 1884 -261 513
-419 1045 -485 1630 -37 323 -41 760 -10 1051 l7 56 69 13 c142 25 278 121
338 239 20 41 105 357 295 1102 260 1016 268 1045 303 1089 66 83 336 351 436
433 467 388 1009 629 1541 686 55 6 116 13 135 15 87 10 441 -4 570 -24z
m-3560 -675 c240 -80 450 -154 467 -165 43 -26 66 -74 65 -135 0 -31 -101
-446 -271 -1110 -257 -1007 -272 -1061 -301 -1087 -16 -15 -48 -32 -70 -38
-40 -11 -61 -5 -480 135 -241 81 -457 156 -479 167 -46 23 -81 83 -81 139 0
44 534 2145 554 2179 20 34 73 60 121 60 25 0 202 -54 475 -145z m17785 -1057
c104 -90 160 -145 152 -149 -16 -9 -334 -102 -642 -188 -1348 -376 -3428 -871
-4220 -1005 -630 -106 -1079 -146 -1632 -146 -568 0 -967 44 -1433 157 -308
74 -764 245 -918 344 -192 123 -382 267 -562 425 -165 144 -169 153 -44 83
636 -358 1391 -563 2359 -641 212 -17 1010 -17 1250 0 703 50 1306 134 2045
283 965 195 2107 512 3180 883 151 52 281 95 288 95 7 1 87 -63 177 -141z
m1550 -590 c-1013 -2047 -2120 -4379 -3432 -7233 -162 -352 -317 -687 -344
-745 -135 -281 -329 -542 -549 -738 -104 -93 -238 -197 -245 -191 -2 3 106
234 241 514 1996 4146 3202 6734 3951 8480 64 150 118 258 170 341 l75 120 97
32 c53 17 157 54 231 81 74 27 140 50 147 50 6 1 -147 -320 -342 -711z
m-10215 -728 c143 -72 518 -207 708 -256 39 -10 72 -22 72 -27 0 -5 -103 -329
-229 -721 -126 -391 -246 -765 -267 -831 -34 -112 -41 -124 -91 -175 l-53 -55
14 45 c86 263 154 500 190 655 54 239 61 299 60 520 -1 245 -13 306 -90 465
-39 78 -62 109 -128 175 -89 88 -157 132 -275 180 l-78 31 36 16 c41 18 55 16
131 -22z m1268 -375 c304 -48 625 -75 892 -75 147 0 181 -3 320 -32 l155 -33
-315 -6 c-370 -8 -522 -23 -715 -71 -202 -50 -377 -152 -495 -290 -143 -167
-243 -364 -485 -960 -49 -120 -91 -216 -93 -213 -10 10 35 189 100 390 87 272
417 1295 423 1314 4 9 14 11 31 7 14 -4 96 -18 182 -31z m5716 -1034 c140 -25
207 -41 338 -83 l97 -31 -21 -29 c-49 -70 -216 -143 -393 -172 -50 -8 -549
-112 -1109 -231 -561 -118 -1023 -214 -1028 -213 -11 4 189 203 277 274 327
267 765 450 1200 503 138 17 502 6 639 -18z m-6909 -2372 c-154 -1202 -348
-2278 -568 -3154 -47 -187 -54 -210 -72 -209 -16 1 -359 86 -401 99 -13 4 41
180 221 725 169 512 334 1052 543 1775 143 491 312 1097 312 1115 0 7 2 11 5
8 3 -2 -16 -164 -40 -359z m6870 -3288 c-95 -559 -247 -978 -472 -1294 -75
-105 -228 -259 -323 -326 -191 -134 -436 -223 -692 -251 -106 -11 -404 -12
-508 -1 -77 8 -87 2 145 92 182 71 451 204 603 299 264 165 521 391 701 615
176 219 270 382 452 781 63 139 115 248 117 244 2 -4 -9 -76 -23 -159z m-8327
-1716 c288 -70 263 -61 250 -93 -6 -15 -57 -122 -113 -237 -240 -498 -486
-864 -780 -1162 l-130 -132 -60 5 c-214 19 -557 69 -614 90 -8 2 29 26 86 54
282 138 549 418 803 840 76 127 230 425 296 573 27 61 53 107 61 107 8 0 98
-20 201 -45z"/>
<path d="M18320 26425 c-346 -74 -616 -325 -712 -662 -18 -63 -22 -102 -22
-208 1 -113 4 -141 27 -210 81 -245 285 -421 541 -466 97 -16 292 -6 381 20
318 95 564 345 646 656 27 103 29 272 6 365 -61 235 -234 415 -472 490 -90 29
-297 37 -395 15z"/>
<path d="M20313 24724 c-323 -70 -604 -332 -693 -646 -30 -105 -37 -253 -16
-358 42 -209 174 -382 361 -474 99 -49 173 -66 306 -73 253 -12 477 76 672
266 130 126 209 262 248 429 30 124 24 305 -14 410 -38 107 -82 177 -168 264
-63 62 -94 85 -170 121 -52 25 -126 52 -166 61 -88 19 -272 20 -360 0z"/>
<path d="M22267 23120 c-195 -35 -387 -139 -521 -280 -80 -85 -117 -139 -166
-242 -62 -130 -75 -192 -75 -353 0 -120 3 -150 23 -210 52 -155 155 -288 286
-369 314 -196 756 -126 1046 164 162 162 248 352 257 570 6 143 -11 234 -66
345 -89 179 -245 306 -444 362 -63 17 -273 25 -340 13z"/>
<path d="M24365 21133 c-323 -69 -605 -330 -696 -645 -29 -102 -36 -270 -15
-368 51 -238 218 -421 461 -506 74 -26 92 -28 235 -29 170 0 243 14 376 75
205 93 388 280 473 483 48 117 64 210 59 351 -7 194 -62 319 -199 457 -87 88
-192 146 -323 179 -96 24 -266 26 -371 3z"/>
</g>
</svg>
