<svg width="2894" height="2577" viewBox="0 0 2894 2577" fill="none" xmlns="http://www.w3.org/2000/svg">
<path fill-rule="evenodd" clip-rule="evenodd" d="M2853.21 829.951C2680.2 1164.34 2519.24 1509.21 2361.93 1851.18C2324.58 1940.07 2257.21 1986.21 2166.82 2015.39C1921.95 2094.48 1730.88 2160.83 1584.33 2185.22C1474.19 2203.57 1355.07 2185.58 1268.51 2115.05C1020.22 1912.79 877.849 1761.74 813.746 1692.55C700.766 1570.63 638.316 1431.66 660.062 1271.44C704.209 946.12 752.677 634.884 820.072 342.244C838.867 260.595 936.187 216.753 1072.73 201.862C1317.73 175.151 1473.21 160.511 1538.73 154.151C1648.28 85.705 1738.57 40.7779 1809.62 19.3939C1938.76 16.1489 2021.1 15.6769 2056.66 17.9899C2427.19 266.317 2688.96 478.953 2841.97 655.905C2885.63 702.365 2889.23 760.308 2853.21 829.951Z" fill="#F2F2F2"/>
<path d="M1504.13 2208.14C1409.64 2208.14 1322.89 2180.22 1258.3 2127.59C1026.08 1938.43 886.596 1794.98 801.884 1703.54C676.41 1568.14 623.305 1422.03 644.037 1269.26C682.384 986.696 731.415 655.153 804.315 338.615C823.429 255.575 915.641 202.726 1070.98 185.788C1290.85 161.816 1436.06 147.812 1514.07 140.288L1533.39 138.42C1642.25 70.6339 1733.61 25.3879 1804.96 3.91091C1806.34 3.49591 1807.77 3.26588 1809.22 3.22988C1940.09 -0.0591249 2021.37 -0.508125 2057.7 1.85488C2060.55 2.04088 2063.29 2.97288 2065.66 4.55788C2435.49 252.412 2700.73 467.925 2853.99 645.085C2902.3 696.689 2906.88 761.386 2867.57 837.38H2867.57C2688.84 1182.84 2520.5 1545.16 2376.73 1857.69C2340.69 1943.27 2277.47 1996.66 2171.79 2030.77C2135.48 2042.51 2100.35 2053.96 2066.37 2065.03C1868.93 2129.37 1712.99 2180.2 1586.99 2201.18C1558.96 2205.85 1531.23 2208.14 1504.13 2208.14ZM1812.22 35.5019C1743.2 56.6249 1654.08 101.147 1547.29 167.863C1545.17 169.186 1542.78 170.002 1540.29 170.243L1517.18 172.477C1439.24 179.994 1294.16 193.986 1074.49 217.936C976.589 228.612 855.718 259.472 835.83 345.871C763.223 661.14 714.331 991.769 676.084 1273.61C656.44 1418.35 705.349 1551.79 825.606 1681.56C909.659 1772.29 1048.08 1914.64 1278.73 2102.52C1354.64 2164.37 1465.05 2188.69 1581.68 2169.28C1705.28 2148.7 1860.2 2098.21 2056.35 2034.28C2090.35 2023.2 2125.51 2011.74 2161.86 2000C2257.87 1969 2314.98 1921.17 2347.02 1844.91C2347.09 1844.75 2347.16 1844.59 2347.24 1844.42C2491.18 1531.51 2659.75 1168.67 2838.85 822.523C2871.7 759.012 2868.87 708.133 2830.19 666.981C2830.03 666.817 2829.88 666.651 2829.74 666.483C2678.9 492.032 2417.02 279.215 2051.31 33.8729C2014.46 31.9139 1934.09 32.4609 1812.22 35.5019Z" fill="#486773"/>
<path fill-rule="evenodd" clip-rule="evenodd" d="M2415.88 666.608C2446.77 642.538 2488.59 644.588 2509.32 671.169C2530.06 697.77 2521.84 738.838 2490.96 762.906C2460.08 786.976 2418.25 784.926 2397.52 758.334C2376.78 731.742 2385.01 690.676 2415.88 666.608Z" fill="#F2F2F2"/>
<g opacity="0.2">
<path fill-rule="evenodd" clip-rule="evenodd" d="M1612.49 1064.21C1641.98 1087.44 1672.68 1106.68 1704.6 1121.9C1693.96 1121.96 1687.78 1132.73 1676.26 1133.13C1771.3 1160.73 1731.76 1270.91 1709.24 1341.56C1725.45 1327.47 1750.4 1293.18 1764.45 1280.79C1756.67 1300.43 1750.89 1322.55 1747.14 1347.17C1804.92 1206.67 1802.26 1183.76 1964.76 1186.23L1841.07 1160.17C1764.79 1146.86 1688.6 1114.88 1612.49 1064.21ZM1563.12 1028.71L1584.13 1048.27C1582.88 1046.04 1581.61 1043.86 1580.32 1041.67C1574.58 1037.45 1568.86 1033.14 1563.12 1028.71ZM2244.88 1982.12C2228.77 1989.48 2184.8 2009.59 2166.82 2015.39C1921.95 2094.48 1730.88 2160.83 1584.33 2185.22C1544 2191.95 1502.46 2193.79 1461.76 2189.96C1580.24 2105.83 1662.74 1865.35 1709.28 1468.49C1581.81 1932.12 1493.88 2142.71 1376.71 2157.83C1374.33 2162.34 1372.17 2166.62 1370.22 2170.7C1333.49 2158.18 1298.98 2139.87 1268.51 2115.06C1198.18 2057.76 1136.36 2004.58 1082.41 1956.22C781.494 1733.34 640.696 1505.08 660.061 1271.44C670.358 1504.66 891.918 1742.61 1324.75 1985.28C1325.54 1991.81 1325.91 1997.9 1325.9 2003.55C1385.59 1967.52 1437.27 1888.22 1484.64 1766.95C1525.97 1661.17 1558.98 1565.7 1582.46 1480.03C1719.56 1069.38 1591.99 1156.38 1040.68 525.764C1172.78 655.946 1294.13 773.761 1404.71 879.229C1375.96 847.166 1347.22 812.449 1318.49 775.035C1398.53 852.693 1479.85 908.871 1562.46 943.608C1623.39 960.934 1628.58 948.499 1578.04 906.304H1578.05C1562.93 895.513 1548 883.561 1533.27 870.446C1303.58 665.871 1175.92 516.903 1147.28 426.897C1414.33 688.373 1585.25 844.644 1660.03 895.711C1680.92 901.797 1700.54 907.697 1718.92 913.444C1704.61 904.78 1690.51 895.327 1676.63 885.042C1845.01 958.094 2273.83 900.998 2276.09 809.073C2270.12 766.318 2232.13 714.264 2162.09 652.901L2403.58 849.724L2405.95 848.724L2467.75 902.018L2467.83 902.083L2587.07 1004.9C2588.14 1008.87 2588.88 1012.78 2589.31 1016.64L2552.33 984.785C2117.2 1138.02 1805.6 1156.74 1617.54 1040.93C1755.08 1176.89 1949.82 1205.93 2201.77 1128.07C2416.68 1075.71 2546.72 1042.32 2591.91 1027.9C2600.04 1025.41 2609.03 1022.62 2618.44 1019.63C2641.11 970.333 2674.58 893.627 2718.86 789.531C2713.58 754.385 2450.41 519.523 2279.76 360.984C2480.56 472.142 2756.12 659.457 2817.1 753.06C2814.34 808.589 2771.67 900.788 2689.05 1029.66H2689.04C2595.94 1248.97 2446.23 1564.42 2244.88 1982.12Z" fill="#486773"/>
</g>
<path d="M1927.64 1178.94C1791.63 1178.94 1684.14 1143.8 1602.21 1073.14C1288.98 802.976 1095.78 602.427 1002.93 506.045C985.829 488.294 972.321 474.273 961.405 463.245C892.96 394.099 866.93 340.762 879.484 295.389C892.091 249.818 942.126 217.286 1036.94 193.009C1044.16 191.171 1051.49 195.509 1053.34 202.721C1055.18 209.931 1050.83 217.272 1043.63 219.118C961.443 240.158 914.957 268.239 905.455 302.577C895.875 337.201 920.44 383.556 980.557 444.286C991.602 455.446 1005.16 469.525 1022.34 487.35C1114.9 583.439 1307.52 783.385 1619.81 1052.74C1738.49 1155.1 1916.46 1178.01 2163.9 1122.77C2436.03 1062.03 2626.28 1008.69 2780.75 949.826C2787.7 947.167 2795.49 950.666 2798.14 957.619C2800.79 964.572 2797.3 972.358 2790.34 975.007C2634.61 1034.35 2443.22 1088.04 2169.77 1149.08C2080.67 1168.96 2000.11 1178.94 1927.64 1178.94Z" fill="#486773"/>
<path d="M2607.88 1036.31C2604.76 1036.31 2601.63 1035.24 2599.09 1033.04L1623.27 191.638L1640.86 171.228L2616.68 1012.63C2622.32 1017.49 2622.95 1026 2618.09 1031.64C2615.42 1034.73 2611.66 1036.31 2607.88 1036.31Z" fill="#486773"/>
<path d="M2607.87 1036.31C2605.34 1036.31 2602.77 1035.6 2600.49 1034.1C2594.27 1030.02 2592.54 1021.67 2596.62 1015.44C2647.42 938.01 2686.07 871.565 2711.5 817.937C2721.79 784.856 2706.81 756.313 2654.69 709.373C2287.01 378.128 2004.19 135.953 1819.02 30.7128C1812.55 27.0358 1810.28 18.8108 1813.96 12.3408C1817.63 5.87077 1825.86 3.59574 1832.33 7.28474C2019.62 113.725 2303.74 356.928 2672.73 689.348C2724.67 736.133 2753.52 775.481 2736.89 827.016C2736.71 827.57 2736.5 828.112 2736.25 828.637C2710.29 883.532 2670.9 951.357 2619.15 1030.23C2616.56 1034.17 2612.26 1036.31 2607.87 1036.31Z" fill="#486773"/>
<path d="M1902.26 974.023C1805.88 974.025 1727.06 954.538 1667.35 915.852C1594.47 876.875 1373.92 664.358 1201.5 492.7C1152.87 444.287 1135.72 400.593 1150.54 362.834C1182.03 282.568 1361.33 237.751 1698.68 225.82C1706.18 225.581 1712.35 231.377 1712.62 238.811C1712.88 246.247 1707.06 252.49 1699.63 252.754C1299.88 266.892 1194.03 325.772 1175.63 372.678C1165.1 399.511 1180.2 433.469 1220.51 473.603C1547.71 799.362 1649.15 875.766 1680.49 892.314C1680.85 892.507 1681.2 892.714 1681.55 892.937C1736.85 928.933 1810.34 946.916 1901.46 946.919C2032.18 946.926 2199.24 909.939 2401.33 836.067C2408.32 833.516 2416.06 837.109 2418.61 844.097C2421.17 851.087 2417.57 858.824 2410.58 861.38C2235.83 925.257 2085.06 962.361 1962.44 971.663C1941.69 973.237 1921.61 974.023 1902.26 974.023Z" fill="#486773"/>
<path d="M1370.67 2171.52C1349.73 2171.52 1327.39 2166.09 1303.31 2155.19C1296.53 2152.12 1293.52 2144.14 1296.59 2137.36C1299.66 2130.58 1307.65 2127.58 1314.42 2130.64C1350.4 2146.91 1380.89 2148.81 1407.6 2136.42C1499.65 2093.74 1558.74 1886.35 1656.64 1542.76C1663.59 1518.39 1670.73 1493.32 1678.09 1467.58C1680.14 1460.42 1687.61 1456.27 1694.75 1458.33C1701.91 1460.38 1706.05 1467.84 1704 1474.99C1696.64 1500.72 1689.5 1525.78 1682.56 1550.15C1582.55 1901.14 1522.18 2112.99 1418.93 2160.87C1403.63 2167.97 1387.6 2171.52 1370.67 2171.52Z" fill="#486773"/>
<path d="M1731.76 1354.22C1730.44 1354.22 1729.09 1354.02 1727.76 1353.61C1720.66 1351.41 1716.68 1343.86 1718.88 1336.76C1727.87 1307.74 1747.66 1246.09 1777.71 1153.5C1780.01 1146.42 1787.62 1142.56 1794.69 1144.84C1801.77 1147.14 1805.64 1154.74 1803.35 1161.82C1773.33 1254.29 1753.57 1315.83 1744.62 1344.72C1742.83 1350.5 1737.51 1354.22 1731.76 1354.22Z" fill="#486773"/>
<path fill-rule="evenodd" clip-rule="evenodd" d="M2441.99 1227.04C2424.47 1174.23 2221.8 1206.29 2155.89 1305.56C2130.2 1344.28 2143.6 1369.86 2169.22 1368.41L2392.86 1321.08C2454.14 1313.15 2470.52 1281.8 2441.99 1227.04Z" fill="#F2F2F2"/>
<path d="M2167.24 1381.94C2152.75 1381.94 2140.37 1375.28 2133.79 1363.8C2124.14 1347 2128.11 1323.06 2144.67 1298.11C2198.56 1216.92 2330.75 1180.3 2401.74 1189.82C2437.06 1194.54 2449.91 1209.51 2454.39 1221.68C2470.34 1252.66 2473.26 1278.28 2463.06 1297.84C2452.81 1317.48 2429.96 1329.77 2395.13 1334.37L2172.01 1381.59C2171.34 1381.74 2170.66 1381.82 2169.98 1381.86C2169.06 1381.92 2168.15 1381.94 2167.24 1381.94ZM2378.81 1215.34C2313.95 1215.34 2209.29 1249.49 2167.12 1313.01C2154.69 1331.74 2153.99 1344.86 2157.16 1350.4C2159.37 1354.24 2163.8 1354.95 2167.54 1354.99L2390.07 1307.89C2390.42 1307.82 2390.78 1307.76 2391.13 1307.71C2417.02 1304.36 2433.18 1296.85 2439.16 1285.37C2445.15 1273.9 2442.08 1256.37 2430.04 1233.26C2429.7 1232.63 2429.42 1231.96 2429.2 1231.28C2426.89 1224.33 2415.29 1218.82 2398.17 1216.53C2392.25 1215.74 2385.76 1215.34 2378.81 1215.34Z" fill="#486773"/>
<path d="M1101.2 1683.2C899.57 1683.2 735.531 1483.59 735.531 1238.23C735.531 992.875 899.569 793.263 1101.2 793.263C1302.83 793.263 1466.86 992.875 1466.86 1238.23C1466.86 1483.59 1302.83 1683.2 1101.2 1683.2ZM1101.2 825.603C917.402 825.603 767.87 1010.71 767.87 1238.23C767.87 1465.76 917.401 1650.86 1101.2 1650.86C1284.99 1650.86 1434.53 1465.76 1434.53 1238.23C1434.53 1010.71 1284.99 825.603 1101.2 825.603Z" fill="#486773"/>
<path fill-rule="evenodd" clip-rule="evenodd" d="M1141.2 837.506C1312.12 837.506 1450.69 1016.28 1450.69 1236.83C1450.69 1457.37 1312.12 1636.15 1141.2 1636.15C970.279 1636.15 831.707 1457.37 831.707 1236.83C831.707 1016.28 970.279 837.506 1141.2 837.506Z" fill="#486773"/>
<path fill-rule="evenodd" clip-rule="evenodd" d="M1442.67 1327.51C1411.49 1483.15 1301.92 1598.14 1171.54 1598.14C1058.25 1598.14 960.694 1511.33 916.601 1386.47C964.707 1291.19 1057.63 1226.61 1163.69 1214.72C1269.76 1202.84 1374.67 1245.25 1442.67 1327.51Z" fill="#AED3F2"/>
<path d="M1171.54 1614.3C1055.13 1614.3 949.076 1526.99 901.354 1391.85C899.884 1387.69 900.18 1383.12 902.167 1379.18C952.907 1278.68 1050 1211.2 1161.89 1198.65C1273.8 1186.11 1383.4 1230.43 1455.13 1317.2C1458.23 1320.96 1459.48 1325.91 1458.52 1330.68C1425.08 1497.68 1307.06 1614.3 1171.54 1614.3ZM934.22 1387.62C978.324 1505.93 1070.87 1581.96 1171.54 1581.96C1289.45 1581.96 1392.9 1479.55 1425.22 1331.93C1360.44 1257.49 1263.93 1219.76 1165.49 1230.79C1066.78 1241.86 980.827 1300.29 934.22 1387.62Z" fill="#486773"/>
<path fill-rule="evenodd" clip-rule="evenodd" d="M686.653 584.013C839.558 724.144 838.976 983.338 685.368 1162.93C531.763 1342.53 283.292 1374.54 130.387 1234.41C-22.4951 1094.29 -21.9251 835.094 131.683 655.498C285.289 475.905 533.76 443.896 686.653 584.013Z" fill="#F2F2F2"/>
<path d="M359.357 1337.86C268.805 1337.86 184.362 1305.81 119.462 1246.33C-39.537 1100.6 -39.566 830.844 119.396 644.987C202.287 548.073 317.011 488.407 434.152 481.288C533.549 475.211 627.091 507.496 697.577 572.091C856.588 717.819 856.623 987.584 697.655 1173.44C614.764 1270.35 500.04 1330.02 382.901 1337.14C375.016 1337.62 367.16 1337.86 359.357 1337.86ZM457.646 512.91C450.505 512.91 443.332 513.127 436.115 513.567C327.677 520.159 221.196 575.72 143.972 666.008C-3.78902 838.769 -4.98302 1088.4 141.313 1222.49C205.283 1281.11 290.39 1310.41 380.939 1304.86C489.377 1298.27 595.856 1242.71 673.08 1152.42C820.846 979.657 822.035 730.019 675.726 595.934C616.862 541.987 540.09 512.91 457.646 512.91Z" fill="#486773"/>
<g opacity="0.2">
<path fill-rule="evenodd" clip-rule="evenodd" d="M585.978 1251.03C438.391 1348.44 253.444 1347.18 130.399 1234.41C-22.495 1094.29 -21.924 835.094 131.683 655.498C197.816 578.17 281.549 528.231 367.652 507.583C381.403 511.596 395.043 516.191 408.554 521.421C-169.116 767.71 66.567 1451.53 585.978 1251.03Z" fill="#486773"/>
</g>
<g opacity="0.4">
<path fill-rule="evenodd" clip-rule="evenodd" d="M623.316 669.557C740.626 777.064 740.176 975.915 622.328 1113.7C504.482 1251.49 313.855 1276.04 196.554 1168.53C79.2439 1061.03 79.6939 862.178 197.542 724.397C315.389 586.602 506.015 562.05 623.316 669.557Z" fill="#4586BF"/>
</g>
<g opacity="0.54">
<path fill-rule="evenodd" clip-rule="evenodd" d="M414.465 727.541C439.184 762.27 415.28 821.698 361.067 860.286C306.853 898.874 242.867 902.002 218.145 867.258C193.426 832.526 217.342 773.098 271.543 734.511C325.756 695.935 389.743 692.809 414.465 727.541Z" fill="#F2F2F2"/>
</g>
<g opacity="0.54">
<path fill-rule="evenodd" clip-rule="evenodd" d="M541.509 1059.91C553.869 1077.28 541.913 1107 514.816 1126.29C487.708 1145.58 455.72 1147.15 443.36 1129.78C430.989 1112.42 442.956 1082.7 470.053 1063.41C497.161 1044.12 529.149 1042.55 541.509 1059.91Z" fill="#F2F2F2"/>
</g>
<path fill-rule="evenodd" clip-rule="evenodd" d="M2407.63 650.333C2438.51 626.265 2480.34 628.316 2501.08 654.908C2521.82 681.498 2513.58 722.566 2482.71 746.634C2451.83 770.704 2410 768.654 2389.26 742.062C2368.53 715.469 2376.75 674.403 2407.63 650.333Z" fill="#AED3F2"/>
<path d="M2435.57 776.833C2413.33 776.833 2392.31 767.878 2378.64 750.346C2366.16 734.343 2361.63 713.837 2365.88 692.604C2369.98 672.118 2381.87 653.329 2399.35 639.704C2436.03 611.108 2486.44 614.218 2511.7 646.621C2524.18 662.622 2528.71 683.127 2524.46 704.363C2520.36 724.849 2508.47 743.635 2491 757.259C2474.16 770.383 2454.43 776.833 2435.57 776.833ZM2415.92 660.959C2403.53 670.617 2395.14 683.735 2392.3 697.897C2389.62 711.315 2392.31 724.054 2399.89 733.773C2416.03 754.466 2449.47 755.462 2474.43 736.004C2486.82 726.348 2495.2 713.228 2498.04 699.068C2500.72 685.648 2498.03 672.908 2490.45 663.192C2474.32 642.5 2440.88 641.496 2415.92 660.959Z" fill="#486773"/>
<path d="M2455 697.331C2452.32 697.331 2449.64 696.34 2447.55 694.34C2443.25 690.224 2443.1 683.4 2447.21 679.101L2485.34 639.252C2489.46 634.953 2496.28 634.799 2500.58 638.915C2504.88 643.031 2505.03 649.855 2500.92 654.154L2462.79 694.003C2460.67 696.218 2457.84 697.331 2455 697.331Z" fill="#486773"/>
<path fill-rule="evenodd" clip-rule="evenodd" d="M1644.08 2019.19C1761.62 2055.98 1873.89 2106.66 1990.4 2145.92C2108.93 2185.88 2244.74 2217.35 2363.28 2159.75C2473.64 2106.13 2524.39 1999.87 2546.86 1886.36H2546.87C2572.19 1779.02 2564.38 1674.37 2482.14 1591.33C2452.28 1655.5 2430.69 1702.03 2417.35 1730.94C2389.46 2593.88 1478.57 1325.74 962.096 2085.21C1007.08 2078.28 1051.88 2091.29 1085.79 2119.14C1091.88 2126.07 1096.87 2133.45 1100.78 2141.31C1242.43 1952.69 1413.25 1946.95 1644.08 2019.19Z" fill="#AED3F2"/>
<g opacity="0.5">
<path fill-rule="evenodd" clip-rule="evenodd" d="M1644.08 2019.19C1761.62 2055.98 1873.89 2106.66 1990.4 2145.92C2108.93 2185.88 2244.74 2217.35 2363.28 2159.75C2473.64 2106.13 2524.39 1999.87 2546.86 1886.36H2546.87C2553.27 1859.25 2557.54 1832.32 2559.04 1805.85C2555.93 1801.26 2552.78 1796.7 2549.57 1792.16C2500.76 2070.66 2345.26 2201.96 2093.39 2138.86C1901.02 2090.67 1743.55 2015.99 1606.65 1963.12C1404.63 1885.11 1226.99 1934.92 1074.47 2110.67C1078.37 2113.32 1082.14 2116.14 1085.79 2119.14C1091.89 2126.07 1096.88 2133.45 1100.78 2141.31C1242.43 1952.69 1413.25 1946.95 1644.08 2019.19Z" fill="#F2F2F2"/>
</g>
<path d="M2217.33 2207.63C2137.88 2207.63 2057.99 2185.77 1985.23 2161.25C1932.43 2143.45 1879.79 2123.05 1828.88 2103.33C1767.17 2079.42 1703.35 2054.69 1639.25 2034.63C1426.31 1967.99 1255.45 1962.27 1113.71 2151.02C1110.34 2155.51 1104.91 2157.91 1099.3 2157.41C1093.71 2156.9 1088.79 2153.52 1086.3 2148.5C1083.22 2142.31 1079.26 2136.36 1074.5 2130.8C1043.66 2105.95 1003.67 2095.16 964.559 2101.19C958.204 2102.18 951.864 2099.28 948.426 2093.84C944.988 2088.4 945.108 2081.44 948.726 2076.11C1220.22 1676.88 1596.81 1822.65 1899.41 1939.78C2071.39 2006.34 2219.91 2063.84 2307.47 2005.88C2365.79 1967.29 2396.45 1877.18 2401.19 1730.42C2401.27 1728.25 2401.77 1726.13 2402.67 1724.17C2416.01 1695.25 2437.61 1648.69 2467.48 1584.5C2469.71 1579.7 2474.15 1576.3 2479.36 1575.4C2484.59 1574.49 2489.91 1576.18 2493.63 1579.95C2570.82 1657.89 2593.4 1759.25 2562.67 1889.79C2534.83 2030.1 2470.12 2125.82 2370.35 2174.29C2320.95 2198.3 2269.23 2207.63 2217.33 2207.63ZM1409.96 1960.23C1477.66 1960.23 1555.48 1974.52 1648.91 2003.77C1714.04 2024.15 1778.36 2049.07 1840.56 2073.17C1891.14 2092.77 1943.44 2113.03 1995.56 2130.6C2109.63 2169.06 2241.69 2200.87 2356.22 2145.21C2447.73 2100.74 2504.91 2015.04 2531 1883.21C2531.04 1883.02 2531.08 1882.83 2531.12 1882.64C2556.9 1773.43 2542.33 1687.3 2486.55 1620.19C2462.89 1671.06 2445.18 1709.24 2433.41 1734.75C2427.92 1890.83 2392.54 1988.37 2325.31 2032.85C2223.81 2100.02 2068.07 2039.73 1887.74 1969.94C1740.61 1912.98 1573.85 1848.43 1414.42 1846.97C1243.33 1845.45 1105.63 1917.6 994.543 2067.43C1031.38 2069.27 1067.09 2082.85 1096.05 2106.64C1096.72 2107.19 1097.35 2107.8 1097.93 2108.46C1099.35 2110.07 1100.73 2111.72 1102.06 2113.4C1169.16 2030.79 1245.93 1982.66 1336.14 1966.51C1359.46 1962.34 1383.96 1960.23 1409.96 1960.23Z" fill="#486773"/>
<g opacity="0.3">
<path fill-rule="evenodd" clip-rule="evenodd" d="M2433.03 1697.06L2417.36 1730.94C2389.65 2588.14 1490.73 1342.9 972.539 2070.66C990.478 2077.54 1008.81 2083.68 1027.55 2088.98C1173.36 1909.64 1428.71 1853.9 1632.95 1938.92C1837.19 2023.94 2259.83 2206.26 2415.55 2012.17C2485.15 1925.43 2502 1783.92 2443.7 1689.21L2433.03 1697.06Z" fill="#486773"/>
</g>
<path fill-rule="evenodd" clip-rule="evenodd" d="M789.74 2418.18C865.797 2191.4 921.24 2086.37 956.068 2086.25C1003.06 2077.15 1050.37 2090.05 1085.79 2119.14C1111.25 2148.06 1117.58 2185.07 1104.76 2230.2C1072.65 2327.43 1036.76 2407.16 1007.31 2474.32C936.712 2635.35 756.777 2542.73 789.74 2418.18Z" fill="#AED3F2"/>
<g opacity="0.5">
<path fill-rule="evenodd" clip-rule="evenodd" d="M1065.93 2105.24C1072.88 2109.34 1079.52 2113.98 1085.79 2119.14C1111.25 2148.06 1117.58 2185.07 1104.76 2230.2C1072.66 2327.43 1036.76 2407.16 1007.31 2474.32C997.835 2495.93 986.397 2512.91 973.765 2525.92C970.751 2522.82 967.801 2519.64 964.928 2516.41C1049.04 2300.9 1082.7 2163.84 1065.93 2105.24Z" fill="#F2F2F2"/>
</g>
<path d="M896.806 2576.24C882.597 2576.24 868.957 2573.74 856.669 2569.44C801.779 2550.27 754.191 2489.3 774.108 2414.04C774.198 2413.71 774.298 2413.37 774.411 2413.04C874.44 2114.77 923.198 2071.69 954.308 2070.12C1004.75 2060.75 1056.33 2074.02 1096.05 2106.64C1096.73 2107.19 1097.35 2107.8 1097.93 2108.45C1127.14 2141.64 1134.67 2184.08 1120.31 2234.62C1120.25 2234.84 1120.18 2235.05 1120.11 2235.27C1090.14 2326.05 1057.52 2400.26 1028.74 2465.73L1022.12 2480.82C991 2551.79 941.159 2576.24 896.806 2576.24ZM805.244 2422.81C790.64 2479.04 826.262 2524.57 867.331 2538.91C906.752 2552.69 960.319 2541.23 992.499 2467.83L999.137 2452.72C1027.59 2387.99 1059.83 2314.62 1089.3 2225.46C1100.34 2186.3 1095.5 2155.32 1074.5 2130.8C1042.04 2104.65 1000.09 2094.19 959.142 2102.12C958.148 2102.32 957.137 2102.41 956.124 2102.41C951.677 2102.43 909.67 2111.56 805.244 2422.81Z" fill="#486773"/>
<path fill-rule="evenodd" clip-rule="evenodd" d="M901.305 2439.53C933.269 2449.47 954.642 2474.21 949.05 2494.78C943.444 2515.36 912.994 2523.97 881.039 2514.03C849.075 2504.08 827.702 2479.36 833.296 2458.77C838.9 2438.2 869.35 2429.59 901.305 2439.53Z" fill="#486773"/>
<path d="M1027.2 2442.41C1020.88 2442.41 1015.23 2437.95 1013.98 2431.51C1005.99 2390.37 977.91 2356.73 938.864 2341.53C899.801 2326.32 856.366 2332.11 822.663 2357C816.677 2361.43 808.239 2360.16 803.818 2354.18C799.396 2348.19 800.664 2339.75 806.648 2335.33C847.832 2304.9 900.906 2297.83 948.643 2316.41C996.358 2334.99 1030.67 2376.1 1040.44 2426.37C1041.86 2433.67 1037.09 2440.74 1029.78 2442.17C1028.91 2442.33 1028.05 2442.41 1027.2 2442.41Z" fill="#486773"/>
<path d="M1091.35 2282.77C1085.68 2282.77 1080.4 2279.16 1078.54 2273.48C1066.19 2235.78 1038.19 2205.19 1001.73 2189.57C965.273 2173.95 923.818 2174.77 887.995 2191.83C881.269 2195.04 873.237 2192.18 870.036 2185.46C866.835 2178.74 869.689 2170.7 876.408 2167.5C919.218 2147.11 968.764 2146.12 1012.34 2164.8C1055.92 2183.47 1089.39 2220.03 1104.15 2265.1C1106.47 2272.17 1102.62 2279.78 1095.55 2282.09C1094.15 2282.55 1092.74 2282.77 1091.35 2282.77Z" fill="#486773"/>
<path d="M2414.79 1791.6C2412.31 1791.6 2409.8 1790.92 2407.55 1789.49C2401.28 1785.48 2399.44 1777.15 2403.44 1770.88C2437.64 1717.32 2506.07 1698.79 2562.62 1727.78C2569.25 1731.17 2571.86 1739.29 2568.47 1745.92C2565.07 1752.54 2556.95 1755.14 2550.33 1751.76C2506.22 1729.15 2452.84 1743.6 2426.16 1785.38C2423.59 1789.4 2419.24 1791.6 2414.79 1791.6Z" fill="#486773"/>
<path d="M2533.54 1954.42C2529.28 1954.42 2525.09 1952.41 2522.48 1948.65C2508.85 1929.11 2487.57 1915.63 2464.08 1911.65C2440.59 1907.66 2416.05 1913.41 2396.76 1927.38C2390.73 1931.74 2382.31 1930.39 2377.95 1924.37C2373.58 1918.35 2374.93 1909.92 2380.95 1905.55C2406.07 1887.37 2438.01 1879.9 2468.58 1885.08C2499.15 1890.26 2526.85 1907.81 2544.58 1933.24C2548.84 1939.34 2547.34 1947.74 2541.24 1952C2538.89 1953.63 2536.2 1954.42 2533.54 1954.42Z" fill="#486773"/>
<path d="M2415.48 2140.84C2414.29 2140.84 2413.09 2140.68 2411.89 2140.35C2404.71 2138.37 2400.5 2130.95 2402.48 2123.78C2408.91 2100.5 2405.45 2075.29 2393 2054.61C2380.56 2033.93 2359.9 2019.08 2336.33 2013.85C2329.06 2012.24 2324.47 2005.05 2326.08 1997.78C2327.69 1990.51 2334.87 1985.91 2342.15 1987.54C2372.9 1994.35 2399.85 2013.73 2416.09 2040.71C2432.33 2067.69 2436.84 2100.58 2428.46 2130.95C2426.81 2136.92 2421.39 2140.84 2415.48 2140.84Z" fill="#486773"/>
<path d="M2219.33 2204.76C2216.21 2204.76 2213.07 2203.68 2210.53 2201.48C2204.9 2196.61 2204.28 2188.1 2209.15 2182.47C2240.51 2146.19 2243.81 2093 2217.18 2053.12C2213.05 2046.93 2214.72 2038.57 2220.91 2034.43C2227.09 2030.3 2235.46 2031.96 2239.59 2038.16C2272.93 2088.09 2268.8 2154.68 2229.53 2200.09C2226.87 2203.18 2223.11 2204.76 2219.33 2204.76Z" fill="#486773"/>
<path d="M2006.06 2164.6C1999.98 2164.6 1994.47 2160.46 1992.97 2154.3C1991.22 2147.07 1995.66 2139.78 2002.89 2138.02C2027.35 2132.09 2046.6 2114.27 2054.38 2090.35C2062.17 2066.42 2057.1 2040.67 2040.83 2021.48C2036.01 2015.8 2036.71 2007.3 2042.39 2002.49C2048.07 1997.67 2056.57 1998.37 2061.38 2004.05C2083.75 2030.43 2090.71 2065.8 2080 2098.69C2069.31 2131.56 2042.86 2156.06 2009.25 2164.22C2008.18 2164.48 2007.11 2164.6 2006.06 2164.6Z" fill="#486773"/>
<path d="M1829.85 2099.83C1825.8 2099.83 1821.79 2098 1819.13 2094.53C1814.62 2088.62 1815.75 2080.16 1821.66 2075.64C1859.47 2046.75 1875.42 1996.8 1861.35 1951.35C1859.14 1944.24 1863.12 1936.7 1870.23 1934.5C1877.33 1932.3 1884.89 1936.28 1887.09 1943.39C1904.49 1999.58 1884.77 2061.33 1838.02 2097.06C1835.58 2098.92 1832.7 2099.83 1829.85 2099.83Z" fill="#486773"/>
<path d="M1661.51 2038.23C1657.14 2038.23 1652.86 2036.11 1650.27 2032.2C1646.15 2026 1647.85 2017.64 1654.05 2013.52C1694.36 1986.79 1710.75 1936.45 1693.9 1891.1C1691.31 1884.13 1694.86 1876.37 1701.84 1873.78C1708.81 1871.18 1716.57 1874.74 1719.16 1881.72C1740.39 1938.86 1719.74 2002.29 1668.94 2035.98C1666.65 2037.5 1664.07 2038.23 1661.51 2038.23Z" fill="#486773"/>
<path d="M1505.22 1998.26C1502.4 1998.26 1499.56 1997.38 1497.13 1995.55C1491.18 1991.09 1489.99 1982.64 1494.46 1976.69C1522.94 1938.78 1528.11 1888.55 1507.95 1845.61C1504.79 1838.87 1507.69 1830.85 1514.42 1827.69C1521.16 1824.52 1529.18 1827.43 1532.35 1834.16C1556.76 1886.15 1550.5 1946.97 1516 1992.88C1513.35 1996.4 1509.31 1998.26 1505.22 1998.26Z" fill="#486773"/>
<path d="M1382.91 1990.68C1382.28 1990.68 1381.65 1990.63 1381.01 1990.54C1373.65 1989.5 1368.51 1982.69 1369.55 1975.32C1376.6 1925.22 1351.6 1875.05 1307.35 1850.49C1300.85 1846.87 1298.5 1838.67 1302.11 1832.17C1305.73 1825.66 1313.93 1823.32 1320.44 1826.92C1374.36 1856.86 1404.82 1918 1396.23 1979.07C1395.29 1985.81 1389.52 1990.68 1382.91 1990.68Z" fill="#486773"/>
<path d="M1255.22 2022.32C1248.8 2022.32 1243.11 2017.7 1241.97 2011.16C1233.21 1960.99 1191.68 1922.64 1140.98 1917.88C1133.57 1917.18 1128.13 1910.61 1128.82 1903.2C1129.52 1895.79 1136.07 1890.27 1143.5 1891.05C1206.27 1896.94 1257.68 1944.43 1268.52 2006.52C1269.79 2013.85 1264.89 2020.83 1257.56 2022.11C1256.77 2022.25 1255.99 2022.32 1255.22 2022.32Z" fill="#486773"/>
<path d="M1149.86 2097.77C1143.14 2097.77 1137.33 2092.76 1136.5 2085.93C1130.66 2038.06 1093.14 2000.56 1045.27 1994.75C1037.89 1993.85 1032.62 1987.13 1033.52 1979.75C1034.42 1972.36 1041.08 1967.09 1048.52 1968C1108.72 1975.31 1155.9 2022.46 1163.25 2082.67C1164.15 2090.05 1158.89 2096.77 1151.51 2097.67C1150.95 2097.74 1150.4 2097.77 1149.86 2097.77Z" fill="#486773"/>
<g opacity="0.3">
<path fill-rule="evenodd" clip-rule="evenodd" d="M2172.48 1284.8C2365.92 1183.84 2458.83 1186.05 2451.22 1291.4C2357.38 1249.67 2247.29 1274.31 2180.17 1352.03C2141.32 1370.07 2138.75 1347.66 2172.48 1284.8Z" fill="#486773"/>
</g>
<g opacity="0.25">
<path fill-rule="evenodd" clip-rule="evenodd" d="M2239.66 705.338C2415.31 856.794 2524.85 951.242 2557.2 979.139C2677.02 852.09 2703.58 750.921 2647.95 685.171C2498.99 552.563 2424.5 486.266 2424.5 486.266C2543.49 605.199 2560.85 712.421 2476.56 807.931C2451.33 835.127 2372.37 800.936 2239.66 705.338Z" fill="#486773"/>
</g>
<path fill-rule="evenodd" clip-rule="evenodd" d="M2201.72 468.952C2232.6 444.882 2274.43 446.932 2295.17 473.524C2315.9 500.116 2307.68 541.193 2276.8 565.263C2245.92 589.319 2204.09 587.28 2183.35 560.688C2162.61 534.088 2170.84 493.022 2201.72 468.952Z" fill="#F2F2F2"/>
<path fill-rule="evenodd" clip-rule="evenodd" d="M2193.47 452.679C2224.35 428.609 2266.19 430.659 2286.91 457.251C2307.64 483.854 2299.42 524.92 2268.55 548.988C2237.66 573.058 2195.84 571.008 2175.1 544.416C2154.37 517.826 2162.59 476.749 2193.47 452.679Z" fill="#AED3F2"/>
<path d="M2221.4 579.184C2199.17 579.184 2178.15 570.231 2164.48 552.702C2152 536.701 2147.47 516.193 2151.72 494.958C2155.82 474.465 2167.71 455.676 2185.19 442.05C2202.67 428.425 2223.76 421.476 2244.66 422.507C2266.29 423.567 2285.06 432.964 2297.54 448.967C2322.8 481.382 2313.51 531.018 2276.84 559.614C2260 572.736 2240.27 579.184 2221.4 579.184ZM2201.76 463.305C2189.37 472.963 2180.98 486.083 2178.15 500.248C2175.46 513.668 2178.15 526.413 2185.73 536.129C2201.86 556.815 2235.29 557.816 2260.27 538.358C2285.23 518.9 2292.41 486.229 2276.28 465.533C2268.71 455.814 2257.01 450.094 2243.34 449.422C2228.87 448.74 2214.15 453.647 2201.76 463.305Z" fill="#486773"/>
<path d="M2240.84 499.689C2238.16 499.689 2235.48 498.698 2233.39 496.701C2229.09 492.585 2228.94 485.761 2233.05 481.459L2271.18 441.598C2275.3 437.296 2282.12 437.145 2286.42 441.259C2290.73 445.375 2290.88 452.199 2286.76 456.501L2248.63 496.362C2246.51 498.576 2243.68 499.689 2240.84 499.689Z" fill="#486773"/>
<path fill-rule="evenodd" clip-rule="evenodd" d="M2010.83 307.538C2041.71 283.468 2083.53 285.518 2104.27 312.099C2125 338.702 2116.78 379.768 2085.9 403.838C2055.02 427.906 2013.2 425.855 1992.46 399.266C1971.72 372.674 1979.95 331.608 2010.83 307.538Z" fill="#F2F2F2"/>
<path fill-rule="evenodd" clip-rule="evenodd" d="M2002.57 291.265C2033.45 267.195 2075.29 269.245 2096.02 295.837C2116.76 322.429 2108.53 363.495 2077.65 387.565C2046.77 411.633 2004.94 409.582 1984.2 382.99C1963.48 356.401 1971.7 315.335 2002.57 291.265Z" fill="#AED3F2"/>
<path d="M2030.51 417.763C2008.27 417.763 1987.25 408.808 1973.58 391.276C1948.32 358.866 1957.61 309.235 1994.29 280.639C1994.29 280.636 1994.29 280.636 1994.29 280.636C2030.97 252.037 2081.37 255.145 2106.64 287.55C2119.12 303.553 2123.65 324.059 2119.4 345.292C2115.3 365.78 2103.42 384.567 2085.94 398.192C2069.1 411.315 2049.37 417.763 2030.51 417.763ZM2010.86 301.889C1985.9 321.352 1978.71 354.018 1994.83 374.706C2010.96 395.392 2044.4 396.393 2069.37 376.937C2081.76 367.279 2090.14 354.161 2092.98 340.001C2095.67 326.583 2092.97 313.841 2085.4 304.122C2069.26 283.424 2035.82 282.423 2010.86 301.89L2010.86 301.889Z" fill="#486773"/>
<path d="M2049.94 338.264C2047.26 338.264 2044.58 337.273 2042.49 335.273C2038.19 331.157 2038.04 324.333 2042.16 320.034L2080.28 280.185C2084.4 275.883 2091.22 275.727 2095.52 279.848C2099.82 283.964 2099.97 290.788 2095.86 295.087L2057.73 334.936C2055.61 337.15 2052.78 338.264 2049.94 338.264Z" fill="#486773"/>
<path fill-rule="evenodd" clip-rule="evenodd" d="M1810.1 137.691C1840.99 113.621 1882.82 115.671 1903.55 142.263C1924.29 168.866 1916.06 209.932 1885.18 234.002C1854.31 258.07 1812.47 256.02 1791.74 229.43C1771.01 202.827 1779.24 161.761 1810.1 137.691Z" fill="#F2F2F2"/>
<path fill-rule="evenodd" clip-rule="evenodd" d="M1801.86 121.429C1832.74 97.3588 1874.57 99.4087 1895.3 125.99C1916.04 152.593 1907.8 193.659 1876.94 217.729C1846.06 241.797 1804.22 239.746 1783.49 213.154C1762.75 186.565 1770.98 145.499 1801.86 121.429Z" fill="#AED3F2"/>
<path d="M1829.79 247.927C1807.56 247.927 1786.53 238.972 1772.86 221.44C1760.38 205.439 1755.85 184.934 1760.1 163.701C1764.21 143.215 1776.09 124.429 1793.57 110.803C1830.25 82.2088 1880.65 85.3068 1905.93 117.703C1931.19 150.117 1921.9 199.754 1885.22 228.355C1868.38 241.479 1848.65 247.927 1829.79 247.927ZM1849.1 118.088C1836.06 118.088 1822.13 122.717 1810.14 132.058C1797.75 141.716 1789.36 154.834 1786.53 168.994C1783.84 182.409 1786.54 195.151 1794.11 204.868C1810.24 225.557 1843.68 226.557 1868.65 207.102C1893.62 187.637 1900.8 154.966 1884.68 134.275C1876.29 123.52 1863.22 118.088 1849.1 118.088Z" fill="#486773"/>
<path d="M1849.23 168.427C1846.55 168.427 1843.87 167.436 1841.78 165.436C1837.48 161.322 1837.33 154.498 1841.44 150.197L1879.57 110.348C1883.68 106.044 1890.51 105.893 1894.81 110.011C1899.11 114.125 1899.26 120.949 1895.14 125.25L1857.02 165.099C1854.9 167.314 1852.07 168.427 1849.23 168.427Z" fill="#486773"/>
<g opacity="0.3">
<path fill-rule="evenodd" clip-rule="evenodd" d="M789.74 2418.18C867.749 2111.94 966.43 2012.26 1085.79 2119.14C1008.84 2094.38 949.796 2202.06 908.674 2442.16C893.76 2500.66 914.015 2530.02 969.456 2530.22C837.77 2570.12 777.865 2532.77 789.74 2418.18Z" fill="#486773"/>
</g>
<g opacity="0.54">
<path fill-rule="evenodd" clip-rule="evenodd" d="M706.236 888.925L706.752 886.895C707.619 883.508 709.088 880.447 711.005 877.75C710.567 798.293 681.354 722.752 623.315 669.557C506.014 562.061 315.388 586.603 197.541 724.396C130.541 802.735 101.481 900.812 110.45 990.62C139.938 580.35 637.877 475.498 706.236 888.925Z" fill="#F2F2F2"/>
</g>
<path d="M372.221 1248.97C302.477 1248.98 237.438 1224.28 187.45 1178.46C65.035 1066.28 64.969 858.661 187.304 715.639C251.081 641.064 339.367 595.151 429.526 589.67C506.062 585.031 578.122 609.86 632.419 659.624C754.831 771.807 754.899 979.431 632.568 1122.46C568.789 1197.03 480.5 1242.95 390.341 1248.42C384.272 1248.79 378.224 1248.97 372.221 1248.97ZM447.612 616.069C442.158 616.069 436.677 616.235 431.162 616.569C348.257 621.608 266.838 664.101 207.783 733.153C94.785 865.265 93.8299 1056.12 205.659 1158.59C254.519 1203.38 319.538 1225.71 388.706 1221.52C471.611 1216.48 553.032 1173.99 612.09 1104.94C725.086 972.826 726.038 781.971 614.211 679.491C569.245 638.281 510.598 616.069 447.612 616.069Z" fill="#486773"/>
<path fill-rule="evenodd" clip-rule="evenodd" d="M747.666 866.631L832.78 895.361C849.612 901.041 857.432 919.079 853.046 936.274L799.718 1145.28C795.332 1162.48 775.628 1171.22 758.807 1165.54L673.679 1136.81C656.869 1131.13 649.03 1113.12 653.427 1095.9L706.753 886.895C711.15 869.69 730.834 860.96 747.666 866.631Z" fill="#F2F2F2"/>
<path d="M769.431 1183.45C764.101 1183.45 758.762 1182.59 753.633 1180.86L668.508 1152.13C644.297 1143.95 631.081 1118.06 637.761 1091.9L691.086 882.898C694.16 870.864 702.063 860.864 713.34 854.736C725.418 848.173 739.815 846.928 752.827 851.306C752.829 851.308 752.834 851.308 752.837 851.311L837.952 880.041C862.161 888.21 875.388 914.101 868.716 940.27L815.386 1149.27C812.32 1161.31 804.412 1171.31 793.123 1177.44C785.8 1181.42 777.629 1183.45 769.431 1183.45ZM737.07 881.079C734.192 881.079 731.303 881.78 728.784 883.149C726.46 884.411 723.471 886.782 722.419 890.898L669.094 1099.9C666.958 1108.27 669.624 1118.38 678.857 1121.5L763.979 1150.22C768.42 1151.72 773.542 1151.27 777.685 1149.03C780.009 1147.77 783.002 1145.4 784.05 1141.28L837.38 932.278C839.514 923.904 836.845 913.799 827.612 910.681L742.505 881.955C740.764 881.367 738.918 881.079 737.07 881.079Z" fill="#486773"/>
</svg>
